<mxfile host="app.diagrams.net" modified="2022-03-30T04:30:42.664Z" agent="5.0 (Windows NT 10.0; Win64; x64) AppleWebKit/537.36 (KHTML, like Gecko) Chrome/99.0.4844.82 Safari/537.36" etag="N2h82Dvd8E7ALPvSPo9y" version="17.2.5" type="github">
  <diagram name="Page-1" id="74e2e168-ea6b-b213-b513-2b3c1d86103e">
    <mxGraphModel dx="1085" dy="615" grid="1" gridSize="10" guides="1" tooltips="1" connect="1" arrows="1" fold="1" page="1" pageScale="1" pageWidth="1100" pageHeight="850" background="none" math="0" shadow="0">
      <root>
        <mxCell id="0" />
        <mxCell id="1" parent="0" />
        <mxCell id="77e6c97f196da883-1" value="&lt;font style=&quot;font-size: 13px&quot;&gt;SIPEKA(Sistem Penyiraman Tanaman Terkendali)&lt;/font&gt;" style="swimlane;html=1;childLayout=stackLayout;startSize=20;rounded=0;shadow=0;labelBackgroundColor=none;strokeWidth=1;fontFamily=Verdana;fontSize=8;align=center;" parent="1" vertex="1">
          <mxGeometry x="70" y="80" width="1050" height="760" as="geometry" />
        </mxCell>
        <mxCell id="77e6c97f196da883-2" value="USER" style="swimlane;html=1;startSize=20;" parent="77e6c97f196da883-1" vertex="1">
          <mxGeometry y="20" width="180" height="740" as="geometry" />
        </mxCell>
        <mxCell id="g-u4_YLgCur7y93bpc3M-8" style="edgeStyle=orthogonalEdgeStyle;rounded=0;orthogonalLoop=1;jettySize=auto;html=1;fontSize=12;" edge="1" parent="77e6c97f196da883-2" source="g-u4_YLgCur7y93bpc3M-3">
          <mxGeometry relative="1" as="geometry">
            <mxPoint x="80" y="150" as="targetPoint" />
          </mxGeometry>
        </mxCell>
        <mxCell id="g-u4_YLgCur7y93bpc3M-3" value="Mulai" style="ellipse;whiteSpace=wrap;html=1;fontSize=13;" vertex="1" parent="77e6c97f196da883-2">
          <mxGeometry x="35" y="50" width="90" height="60" as="geometry" />
        </mxCell>
        <mxCell id="g-u4_YLgCur7y93bpc3M-7" value="memasukan data penyiraman" style="verticalLabelPosition=middle;verticalAlign=middle;html=1;shape=trapezoid;perimeter=trapezoidPerimeter;whiteSpace=wrap;size=0.23;arcSize=10;flipV=1;labelPosition=center;align=center;fontSize=12;" vertex="1" parent="77e6c97f196da883-2">
          <mxGeometry x="15" y="150" width="140" height="80" as="geometry" />
        </mxCell>
        <mxCell id="g-u4_YLgCur7y93bpc3M-61" style="edgeStyle=orthogonalEdgeStyle;rounded=0;orthogonalLoop=1;jettySize=auto;html=1;entryX=0.5;entryY=0;entryDx=0;entryDy=0;fontSize=12;" edge="1" parent="77e6c97f196da883-2" source="g-u4_YLgCur7y93bpc3M-34" target="g-u4_YLgCur7y93bpc3M-59">
          <mxGeometry relative="1" as="geometry" />
        </mxCell>
        <mxCell id="g-u4_YLgCur7y93bpc3M-34" value="Menyiram?" style="strokeWidth=2;html=1;shape=mxgraph.flowchart.decision;whiteSpace=wrap;fontSize=12;" vertex="1" parent="77e6c97f196da883-2">
          <mxGeometry x="32.5" y="285" width="105" height="100" as="geometry" />
        </mxCell>
        <mxCell id="g-u4_YLgCur7y93bpc3M-40" value="YA" style="text;html=1;strokeColor=none;fillColor=none;align=center;verticalAlign=middle;whiteSpace=wrap;rounded=0;fontSize=12;" vertex="1" parent="77e6c97f196da883-2">
          <mxGeometry x="120" y="305" width="60" height="30" as="geometry" />
        </mxCell>
        <mxCell id="g-u4_YLgCur7y93bpc3M-43" value="TIDAK" style="text;html=1;strokeColor=none;fillColor=none;align=center;verticalAlign=middle;whiteSpace=wrap;rounded=0;fontSize=12;" vertex="1" parent="77e6c97f196da883-2">
          <mxGeometry x="15" y="450" width="60" height="30" as="geometry" />
        </mxCell>
        <mxCell id="g-u4_YLgCur7y93bpc3M-59" value="Selesai" style="ellipse;whiteSpace=wrap;html=1;fontSize=12;" vertex="1" parent="77e6c97f196da883-2">
          <mxGeometry x="35" y="605" width="100" height="60" as="geometry" />
        </mxCell>
        <mxCell id="77e6c97f196da883-3" value="APLIKASI" style="swimlane;html=1;startSize=20;" parent="77e6c97f196da883-1" vertex="1">
          <mxGeometry x="180" y="20" width="190" height="740" as="geometry" />
        </mxCell>
        <mxCell id="g-u4_YLgCur7y93bpc3M-10" value="Membaca masukan dari user" style="rounded=1;whiteSpace=wrap;html=1;absoluteArcSize=1;arcSize=14;strokeWidth=2;fontSize=12;" vertex="1" parent="77e6c97f196da883-3">
          <mxGeometry x="40" y="40" width="100" height="100" as="geometry" />
        </mxCell>
        <mxCell id="g-u4_YLgCur7y93bpc3M-32" value="Menampilkan notifikasi penyiraman&lt;br&gt;dan data kelembapan" style="rounded=1;whiteSpace=wrap;html=1;absoluteArcSize=1;arcSize=14;strokeWidth=2;fontSize=12;" vertex="1" parent="77e6c97f196da883-3">
          <mxGeometry x="20" y="200" width="140" height="100" as="geometry" />
        </mxCell>
        <mxCell id="g-u4_YLgCur7y93bpc3M-36" value="Membaca masukan dari user" style="rounded=1;whiteSpace=wrap;html=1;absoluteArcSize=1;arcSize=14;strokeWidth=2;fontSize=12;" vertex="1" parent="77e6c97f196da883-3">
          <mxGeometry x="40" y="470" width="100" height="60" as="geometry" />
        </mxCell>
        <mxCell id="g-u4_YLgCur7y93bpc3M-37" style="edgeStyle=orthogonalEdgeStyle;rounded=0;orthogonalLoop=1;jettySize=auto;html=1;exitX=0.5;exitY=1;exitDx=0;exitDy=0;fontSize=12;" edge="1" parent="77e6c97f196da883-3" source="g-u4_YLgCur7y93bpc3M-36" target="g-u4_YLgCur7y93bpc3M-36">
          <mxGeometry relative="1" as="geometry" />
        </mxCell>
        <mxCell id="g-u4_YLgCur7y93bpc3M-66" value="notifikasi tanaman disiram" style="rounded=1;whiteSpace=wrap;html=1;absoluteArcSize=1;arcSize=14;strokeWidth=2;fontSize=12;" vertex="1" parent="77e6c97f196da883-3">
          <mxGeometry x="35" y="610" width="120" height="50" as="geometry" />
        </mxCell>
        <mxCell id="77e6c97f196da883-4" value="SISTEM" style="swimlane;html=1;startSize=20;" parent="77e6c97f196da883-1" vertex="1">
          <mxGeometry x="370" y="20" width="360" height="740" as="geometry" />
        </mxCell>
        <mxCell id="g-u4_YLgCur7y93bpc3M-15" style="edgeStyle=orthogonalEdgeStyle;rounded=0;orthogonalLoop=1;jettySize=auto;html=1;fontSize=12;" edge="1" parent="77e6c97f196da883-4" source="g-u4_YLgCur7y93bpc3M-11" target="g-u4_YLgCur7y93bpc3M-14">
          <mxGeometry relative="1" as="geometry" />
        </mxCell>
        <mxCell id="g-u4_YLgCur7y93bpc3M-11" value="menerima masukan" style="rounded=1;whiteSpace=wrap;html=1;absoluteArcSize=1;arcSize=14;strokeWidth=2;fontSize=12;" vertex="1" parent="77e6c97f196da883-4">
          <mxGeometry x="30" y="40" width="100" height="100" as="geometry" />
        </mxCell>
        <mxCell id="g-u4_YLgCur7y93bpc3M-19" style="edgeStyle=orthogonalEdgeStyle;rounded=0;orthogonalLoop=1;jettySize=auto;html=1;fontSize=12;" edge="1" parent="77e6c97f196da883-4" source="g-u4_YLgCur7y93bpc3M-13" target="g-u4_YLgCur7y93bpc3M-18">
          <mxGeometry relative="1" as="geometry" />
        </mxCell>
        <mxCell id="g-u4_YLgCur7y93bpc3M-13" value="database" style="shape=cylinder3;whiteSpace=wrap;html=1;boundedLbl=1;backgroundOutline=1;size=15;fontSize=12;" vertex="1" parent="77e6c97f196da883-4">
          <mxGeometry x="225" y="170" width="60" height="80" as="geometry" />
        </mxCell>
        <mxCell id="g-u4_YLgCur7y93bpc3M-17" style="edgeStyle=orthogonalEdgeStyle;rounded=0;orthogonalLoop=1;jettySize=auto;html=1;fontSize=12;" edge="1" parent="77e6c97f196da883-4" source="g-u4_YLgCur7y93bpc3M-14" target="g-u4_YLgCur7y93bpc3M-13">
          <mxGeometry relative="1" as="geometry" />
        </mxCell>
        <mxCell id="g-u4_YLgCur7y93bpc3M-14" value="menyimpan masukan ke database" style="rounded=1;whiteSpace=wrap;html=1;absoluteArcSize=1;arcSize=14;strokeWidth=2;fontSize=12;" vertex="1" parent="77e6c97f196da883-4">
          <mxGeometry x="200" y="55" width="110" height="70" as="geometry" />
        </mxCell>
        <mxCell id="g-u4_YLgCur7y93bpc3M-18" value="membaca dan memproses sesuai data yang ada di database" style="rounded=1;whiteSpace=wrap;html=1;absoluteArcSize=1;arcSize=14;strokeWidth=2;fontSize=12;" vertex="1" parent="77e6c97f196da883-4">
          <mxGeometry x="20" y="170" width="120" height="80" as="geometry" />
        </mxCell>
        <mxCell id="g-u4_YLgCur7y93bpc3M-22" value="meminta data pada sensor&amp;nbsp;" style="rounded=1;whiteSpace=wrap;html=1;absoluteArcSize=1;arcSize=14;strokeWidth=2;fontSize=12;" vertex="1" parent="77e6c97f196da883-4">
          <mxGeometry x="20" y="300" width="130" height="85" as="geometry" />
        </mxCell>
        <mxCell id="g-u4_YLgCur7y93bpc3M-25" value="mendapatkan data kelembapan" style="rounded=1;whiteSpace=wrap;html=1;absoluteArcSize=1;arcSize=14;strokeWidth=2;fontSize=12;" vertex="1" parent="77e6c97f196da883-4">
          <mxGeometry x="190" y="390" width="140" height="70" as="geometry" />
        </mxCell>
        <mxCell id="g-u4_YLgCur7y93bpc3M-48" value="Meminta Pompa untuk menyiram" style="rounded=1;whiteSpace=wrap;html=1;absoluteArcSize=1;arcSize=14;strokeWidth=2;fontSize=12;" vertex="1" parent="77e6c97f196da883-4">
          <mxGeometry x="20" y="470" width="160" height="60" as="geometry" />
        </mxCell>
        <mxCell id="g-u4_YLgCur7y93bpc3M-64" value="menerima data&amp;nbsp; pompa mati" style="rounded=1;whiteSpace=wrap;html=1;absoluteArcSize=1;arcSize=14;strokeWidth=2;fontSize=12;" vertex="1" parent="77e6c97f196da883-4">
          <mxGeometry x="205" y="590" width="110" height="90" as="geometry" />
        </mxCell>
        <mxCell id="77e6c97f196da883-6" value="SENSOR" style="swimlane;html=1;startSize=20;" parent="77e6c97f196da883-1" vertex="1">
          <mxGeometry x="730" y="20" width="160" height="740" as="geometry" />
        </mxCell>
        <mxCell id="g-u4_YLgCur7y93bpc3M-23" value="memberikan data&lt;br&gt;kelembapan" style="rounded=1;whiteSpace=wrap;html=1;absoluteArcSize=1;arcSize=14;strokeWidth=2;fontSize=12;" vertex="1" parent="77e6c97f196da883-6">
          <mxGeometry x="30" y="60" width="100" height="50" as="geometry" />
        </mxCell>
        <mxCell id="77e6c97f196da883-5" value="POMPA" style="swimlane;html=1;startSize=20;" parent="77e6c97f196da883-1" vertex="1">
          <mxGeometry x="890" y="20" width="160" height="740" as="geometry" />
        </mxCell>
        <mxCell id="g-u4_YLgCur7y93bpc3M-62" value="Menyiram Tanaman" style="rounded=1;whiteSpace=wrap;html=1;absoluteArcSize=1;arcSize=14;strokeWidth=2;fontSize=12;" vertex="1" parent="77e6c97f196da883-5">
          <mxGeometry x="20" y="65" width="120" height="50" as="geometry" />
        </mxCell>
        <mxCell id="g-u4_YLgCur7y93bpc3M-9" style="edgeStyle=orthogonalEdgeStyle;rounded=0;orthogonalLoop=1;jettySize=auto;html=1;fontSize=12;" edge="1" parent="77e6c97f196da883-1" source="g-u4_YLgCur7y93bpc3M-7" target="g-u4_YLgCur7y93bpc3M-10">
          <mxGeometry relative="1" as="geometry">
            <mxPoint x="180" y="90" as="targetPoint" />
            <Array as="points">
              <mxPoint x="140" y="110" />
            </Array>
          </mxGeometry>
        </mxCell>
        <mxCell id="g-u4_YLgCur7y93bpc3M-12" style="edgeStyle=orthogonalEdgeStyle;rounded=0;orthogonalLoop=1;jettySize=auto;html=1;fontSize=12;" edge="1" parent="77e6c97f196da883-1" source="g-u4_YLgCur7y93bpc3M-10" target="g-u4_YLgCur7y93bpc3M-11">
          <mxGeometry relative="1" as="geometry" />
        </mxCell>
        <mxCell id="g-u4_YLgCur7y93bpc3M-24" style="edgeStyle=orthogonalEdgeStyle;rounded=0;orthogonalLoop=1;jettySize=auto;html=1;entryX=0;entryY=0.5;entryDx=0;entryDy=0;fontSize=12;" edge="1" parent="77e6c97f196da883-1" source="g-u4_YLgCur7y93bpc3M-22" target="g-u4_YLgCur7y93bpc3M-23">
          <mxGeometry relative="1" as="geometry">
            <Array as="points">
              <mxPoint x="700" y="367" />
              <mxPoint x="700" y="105" />
            </Array>
          </mxGeometry>
        </mxCell>
        <mxCell id="g-u4_YLgCur7y93bpc3M-28" style="edgeStyle=orthogonalEdgeStyle;rounded=0;orthogonalLoop=1;jettySize=auto;html=1;entryX=1;entryY=0.5;entryDx=0;entryDy=0;fontSize=12;" edge="1" parent="77e6c97f196da883-1" source="g-u4_YLgCur7y93bpc3M-23" target="g-u4_YLgCur7y93bpc3M-25">
          <mxGeometry relative="1" as="geometry">
            <Array as="points">
              <mxPoint x="800" y="445" />
            </Array>
          </mxGeometry>
        </mxCell>
        <mxCell id="g-u4_YLgCur7y93bpc3M-33" style="edgeStyle=orthogonalEdgeStyle;rounded=0;orthogonalLoop=1;jettySize=auto;html=1;entryX=1;entryY=0.5;entryDx=0;entryDy=0;fontSize=12;" edge="1" parent="77e6c97f196da883-1" source="g-u4_YLgCur7y93bpc3M-25" target="g-u4_YLgCur7y93bpc3M-32">
          <mxGeometry relative="1" as="geometry">
            <Array as="points">
              <mxPoint x="360" y="440" />
              <mxPoint x="360" y="270" />
            </Array>
          </mxGeometry>
        </mxCell>
        <mxCell id="g-u4_YLgCur7y93bpc3M-35" style="edgeStyle=orthogonalEdgeStyle;rounded=0;orthogonalLoop=1;jettySize=auto;html=1;fontSize=12;" edge="1" parent="77e6c97f196da883-1" source="g-u4_YLgCur7y93bpc3M-34" target="g-u4_YLgCur7y93bpc3M-36">
          <mxGeometry relative="1" as="geometry">
            <mxPoint x="200" y="355" as="targetPoint" />
            <Array as="points">
              <mxPoint x="270" y="355" />
            </Array>
          </mxGeometry>
        </mxCell>
        <mxCell id="g-u4_YLgCur7y93bpc3M-41" style="edgeStyle=orthogonalEdgeStyle;rounded=0;orthogonalLoop=1;jettySize=auto;html=1;entryX=0.5;entryY=0;entryDx=0;entryDy=0;entryPerimeter=0;fontSize=12;" edge="1" parent="77e6c97f196da883-1" source="g-u4_YLgCur7y93bpc3M-32" target="g-u4_YLgCur7y93bpc3M-34">
          <mxGeometry relative="1" as="geometry" />
        </mxCell>
        <mxCell id="g-u4_YLgCur7y93bpc3M-51" style="edgeStyle=orthogonalEdgeStyle;rounded=0;orthogonalLoop=1;jettySize=auto;html=1;fontSize=12;" edge="1" parent="77e6c97f196da883-1" source="g-u4_YLgCur7y93bpc3M-36" target="g-u4_YLgCur7y93bpc3M-48">
          <mxGeometry relative="1" as="geometry" />
        </mxCell>
        <mxCell id="g-u4_YLgCur7y93bpc3M-63" style="edgeStyle=orthogonalEdgeStyle;rounded=0;orthogonalLoop=1;jettySize=auto;html=1;fontSize=12;" edge="1" parent="77e6c97f196da883-1" source="g-u4_YLgCur7y93bpc3M-48" target="g-u4_YLgCur7y93bpc3M-62">
          <mxGeometry relative="1" as="geometry">
            <Array as="points">
              <mxPoint x="930" y="520" />
            </Array>
          </mxGeometry>
        </mxCell>
        <mxCell id="g-u4_YLgCur7y93bpc3M-65" style="edgeStyle=orthogonalEdgeStyle;rounded=0;orthogonalLoop=1;jettySize=auto;html=1;fontSize=12;" edge="1" parent="77e6c97f196da883-1" source="g-u4_YLgCur7y93bpc3M-62" target="g-u4_YLgCur7y93bpc3M-64">
          <mxGeometry relative="1" as="geometry">
            <Array as="points">
              <mxPoint x="970" y="660" />
            </Array>
          </mxGeometry>
        </mxCell>
        <mxCell id="g-u4_YLgCur7y93bpc3M-67" style="edgeStyle=orthogonalEdgeStyle;rounded=0;orthogonalLoop=1;jettySize=auto;html=1;fontSize=12;" edge="1" parent="77e6c97f196da883-1" source="g-u4_YLgCur7y93bpc3M-64" target="g-u4_YLgCur7y93bpc3M-66">
          <mxGeometry relative="1" as="geometry" />
        </mxCell>
        <mxCell id="g-u4_YLgCur7y93bpc3M-68" style="edgeStyle=orthogonalEdgeStyle;rounded=0;orthogonalLoop=1;jettySize=auto;html=1;fontSize=12;" edge="1" parent="77e6c97f196da883-1" source="g-u4_YLgCur7y93bpc3M-66" target="g-u4_YLgCur7y93bpc3M-59">
          <mxGeometry relative="1" as="geometry" />
        </mxCell>
        <mxCell id="g-u4_YLgCur7y93bpc3M-46" style="edgeStyle=orthogonalEdgeStyle;rounded=0;orthogonalLoop=1;jettySize=auto;html=1;fontSize=12;" edge="1" parent="1" source="g-u4_YLgCur7y93bpc3M-18">
          <mxGeometry relative="1" as="geometry">
            <mxPoint x="520" y="400" as="targetPoint" />
          </mxGeometry>
        </mxCell>
      </root>
    </mxGraphModel>
  </diagram>
</mxfile>
